<svg xmlns="http://www.w3.org/2000/svg" style="display: none;">
    <symbol id="frontend-mentor-logo" viewBox="0 0 175 25">
        <path d="m43.174 3.884a0.278 0.278 0 0 1-0.205 0.074h-6.455c-0.062 0-0.094 0.031-0.094 0.093v3.951c0 0.062 0.031 0.093 0.094 0.093h4.396c0.086 0 0.154 0.025 0.203 0.074 0.05 0.05 0.074 0.118 0.074 0.204v0.983a0.274 0.274 0 0 1-0.074 0.204 0.271 0.271 0 0 1-0.203 0.074h-4.396c-0.062 0-0.094 0.031-0.094 0.093v5.398a0.272 0.272 0 0 1-0.074 0.204 0.271 0.271 0 0 1-0.203 0.074h-1.225a0.276 0.276 0 0 1-0.205-0.074 0.275 0.275 0 0 1-0.073-0.204v-12.43c0-0.086 0.024-0.154 0.073-0.204a0.28 0.28 0 0 1 0.205-0.074h8.051c0.087 0 0.154 0.025 0.205 0.074a0.28 0.28 0 0 1 0.074 0.204v0.983a0.28 0.28 0 0 1-0.074 0.206zm6.994 2.189c0.135 0.074 0.186 0.192 0.148 0.353l-0.26 1.206c-0.014 0.124-0.074 0.186-0.186 0.186a0.458 0.458 0 0 1-0.148-0.019 1.989 1.989 0 0 0-0.631-0.093 1.57 1.57 0 0 0-0.279 0.019c-0.581 0.025-1.061 0.226-1.438 0.604-0.377 0.377-0.565 0.869-0.565 1.475v5.324a0.272 0.272 0 0 1-0.074 0.204 0.275 0.275 0 0 1-0.204 0.074h-1.225a0.271 0.271 0 0 1-0.203-0.074c-0.051-0.049-0.074-0.117-0.074-0.204v-8.888c0-0.086 0.023-0.154 0.074-0.203a0.271 0.271 0 0 1 0.203-0.074h1.225c0.086 0 0.154 0.024 0.204 0.074 0.05 0.049 0.074 0.117 0.074 0.203v0.854c0 0.05 9e-3 0.078 0.028 0.084 0.018 6e-3 0.039-0.01 0.064-0.047 0.557-0.841 1.311-1.261 2.264-1.261 0.372 0 0.706 0.067 1.003 0.203zm3.533 8.785c-0.674-0.464-1.147-1.11-1.419-1.939-0.223-0.667-0.334-1.422-0.334-2.263 0-0.878 0.104-1.62 0.315-2.227 0.271-0.816 0.748-1.456 1.428-1.92 0.681-0.464 1.49-0.695 2.431-0.695 0.891 0 1.667 0.231 2.329 0.695 0.66 0.464 1.134 1.098 1.418 1.901 0.223 0.631 0.334 1.373 0.334 2.227 0 0.865-0.111 1.626-0.334 2.281-0.271 0.829-0.742 1.476-1.409 1.939-0.668 0.464-1.454 0.695-2.356 0.695-0.928 1e-3 -1.729-0.23-2.403-0.694zm3.701-1.262c0.371-0.278 0.637-0.671 0.798-1.179 0.136-0.47 0.204-1.051 0.204-1.743s-0.062-1.268-0.186-1.726c-0.161-0.507-0.427-0.899-0.798-1.178s-0.823-0.418-1.354-0.418c-0.508 0-0.945 0.14-1.316 0.418s-0.638 0.671-0.799 1.178c-0.136 0.433-0.203 1.008-0.203 1.726 0 0.717 0.067 1.299 0.203 1.743 0.148 0.508 0.412 0.9 0.789 1.179s0.832 0.417 1.363 0.417a2.1 2.1 0 0 0 1.299-0.417zm12.207-6.883c0.594 0.588 0.891 1.382 0.891 2.384v6.029a0.276 0.276 0 0 1-0.074 0.204 0.276 0.276 0 0 1-0.205 0.074h-1.224a0.272 0.272 0 0 1-0.204-0.074 0.272 0.272 0 0 1-0.074-0.204v-5.676c0-0.618-0.18-1.119-0.538-1.503-0.358-0.383-0.835-0.575-1.429-0.575-0.531 0-0.98 0.158-1.345 0.474-0.365 0.315-0.579 0.739-0.64 1.271v6.011a0.276 0.276 0 0 1-0.074 0.204 0.276 0.276 0 0 1-0.205 0.074h-1.225a0.271 0.271 0 0 1-0.203-0.074 0.272 0.272 0 0 1-0.074-0.204v-8.888c0-0.086 0.024-0.154 0.074-0.203a0.271 0.271 0 0 1 0.203-0.074h1.225c0.087 0 0.155 0.024 0.205 0.074a0.275 0.275 0 0 1 0.074 0.203v0.52c0 0.037 0.012 0.062 0.037 0.074 0.023 0.013 0.043 7e-3 0.055-0.019 0.52-0.655 1.299-0.982 2.338-0.982 1.014 0 1.819 0.293 2.412 0.88zm8.478 0.64a0.275 0.275 0 0 1-0.204 0.074h-1.893c-0.062 0-0.092 0.031-0.092 0.093v4.842c0 0.532 0.113 0.909 0.343 1.132 0.229 0.223 0.597 0.334 1.104 0.334h0.445c0.087 0 0.155 0.025 0.204 0.074a0.28 0.28 0 0 1 0.074 0.204v0.965c0 0.174-0.093 0.272-0.278 0.297l-0.761 0.019c-0.952 0-1.664-0.167-2.133-0.501-0.471-0.334-0.705-0.958-0.705-1.874v-5.492c0-0.062-0.031-0.093-0.094-0.093h-1.02a0.274 0.274 0 0 1-0.204-0.074 0.272 0.272 0 0 1-0.074-0.204v-0.909c0-0.086 0.024-0.154 0.074-0.203a0.274 0.274 0 0 1 0.204-0.074h1.02c0.062 0 0.094-0.031 0.094-0.093v-2.078c0-0.087 0.024-0.154 0.074-0.204a0.271 0.271 0 0 1 0.203-0.074h1.15c0.087 0 0.154 0.024 0.205 0.074 0.049 0.05 0.074 0.117 0.074 0.204v2.078c0 0.062 0.03 0.093 0.092 0.093h1.893c0.086 0 0.154 0.024 0.204 0.074 0.05 0.049 0.074 0.117 0.074 0.203v0.909a0.268 0.268 0 0 1-0.073 0.204zm8.627 5.51c0.062-0.111 0.13-0.167 0.204-0.167 0.062 0 0.117 0.019 0.166 0.056l0.762 0.464c0.099 0.062 0.148 0.143 0.148 0.241l-0.037 0.148a3.627 3.627 0 0 1-1.42 1.429c-0.611 0.347-1.326 0.52-2.143 0.52-0.878 0-1.62-0.194-2.227-0.584-0.605-0.39-1.063-0.949-1.372-1.68-0.31-0.754-0.464-1.639-0.464-2.652 0-0.903 0.068-1.589 0.204-2.06 0.223-0.854 0.667-1.527 1.335-2.022 0.668-0.494 1.479-0.741 2.431-0.741 1.175 0 2.071 0.306 2.69 0.918 0.618 0.612 1.02 1.5 1.205 2.662 0.062 0.458 0.105 1.015 0.131 1.67 0 0.186-0.094 0.278-0.279 0.278h-5.861c-0.062 0-0.094 0.03-0.094 0.093 0.025 0.47 0.068 0.804 0.131 1.001 0.135 0.495 0.408 0.885 0.816 1.169 0.408 0.285 0.914 0.427 1.521 0.427 1.002-0.013 1.72-0.403 2.153-1.17zm-3.738-5.12c-0.341 0.26-0.572 0.619-0.696 1.076a4.33 4.33 0 0 0-0.166 1.039c0 0.062 0.03 0.093 0.092 0.093h4.212c0.062 0 0.093-0.031 0.093-0.093-0.025-0.408-0.062-0.711-0.111-0.909a2.107 2.107 0 0 0-0.732-1.159c-0.365-0.291-0.82-0.437-1.364-0.437s-0.989 0.13-1.328 0.39zm14.682-1.03c0.594 0.588 0.891 1.382 0.891 2.384v6.029a0.272 0.272 0 0 1-0.074 0.204 0.271 0.271 0 0 1-0.203 0.074h-1.225a0.274 0.274 0 0 1-0.204-0.074 0.272 0.272 0 0 1-0.074-0.204v-5.676c0-0.618-0.18-1.119-0.538-1.503-0.359-0.383-0.835-0.575-1.429-0.575-0.532 0-0.979 0.158-1.345 0.474s-0.578 0.739-0.641 1.271v6.011a0.272 0.272 0 0 1-0.074 0.204 0.271 0.271 0 0 1-0.203 0.074h-1.225a0.272 0.272 0 0 1-0.204-0.074 0.272 0.272 0 0 1-0.074-0.204v-8.888c0-0.086 0.024-0.154 0.074-0.203a0.272 0.272 0 0 1 0.204-0.074h1.225c0.086 0 0.154 0.024 0.203 0.074 0.05 0.049 0.074 0.117 0.074 0.203v0.52c0 0.037 0.013 0.062 0.037 0.074 0.025 0.013 0.043 7e-3 0.057-0.019 0.52-0.655 1.299-0.982 2.337-0.982 1.015 0 1.818 0.293 2.411 0.88zm9.723-4.22a0.275 0.275 0 0 1 0.203-0.074h1.225a0.28 0.28 0 0 1 0.204 0.074c0.05 0.05 0.074 0.118 0.074 0.204v12.43a0.272 0.272 0 0 1-0.074 0.204 0.275 0.275 0 0 1-0.204 0.074h-1.225a0.271 0.271 0 0 1-0.203-0.074c-0.051-0.049-0.074-0.117-0.074-0.204v-0.482c0-0.037-0.014-0.062-0.037-0.074-0.025-0.012-0.051-6e-3 -0.074 0.019-0.273 0.31-0.592 0.548-0.956 0.715-0.364 0.166-0.764 0.25-1.196 0.25-0.891 0-1.63-0.22-2.217-0.658-0.588-0.439-1.018-1.061-1.289-1.865-0.223-0.618-0.334-1.409-0.334-2.374 0-0.903 0.092-1.651 0.277-2.245 0.26-0.816 0.689-1.453 1.289-1.911 0.6-0.457 1.357-0.686 2.273-0.686 0.433 0 0.832 0.08 1.196 0.241 0.364 0.16 0.683 0.396 0.956 0.704 0.023 0.025 0.049 0.034 0.074 0.028 0.023-6e-3 0.037-0.028 0.037-0.065v-4.025c1e-3 -0.088 0.024-0.157 0.075-0.206zm-0.094 8.181c0-1.015-0.16-1.806-0.482-2.375-0.358-0.631-0.884-0.946-1.576-0.946-0.718 0-1.268 0.297-1.651 0.891-0.396 0.619-0.594 1.435-0.594 2.449 0 0.952 0.155 1.719 0.464 2.3 0.358 0.681 0.952 1.021 1.781 1.021 0.705 0 1.242-0.334 1.613-1.002 0.297-0.545 0.445-1.324 0.445-2.338zm9.369 4.657a0.272 0.272 0 0 1-0.074-0.204v-12.43c0-0.086 0.024-0.154 0.074-0.204a0.275 0.275 0 0 1 0.203-0.074h1.244c0.148 0 0.26 0.062 0.334 0.186l3.116 4.972c0.037 0.074 0.074 0.074 0.111 0l3.136-4.972a0.366 0.366 0 0 1 0.334-0.186h1.242a0.28 0.28 0 0 1 0.204 0.074c0.05 0.05 0.074 0.118 0.074 0.204v12.43a0.272 0.272 0 0 1-0.074 0.204 0.275 0.275 0 0 1-0.204 0.074h-1.225a0.271 0.271 0 0 1-0.203-0.074c-0.051-0.049-0.074-0.117-0.074-0.204v-9.424c0-0.05-0.014-0.077-0.037-0.084-0.025-6e-3 -0.051 0.01-0.074 0.047l-2.523 4.118a0.365 0.365 0 0 1-0.334 0.186h-0.594a0.365 0.365 0 0 1-0.334-0.186l-2.504-4.118c-0.025-0.037-0.051-0.053-0.074-0.047-0.025 7e-3 -0.037 0.034-0.037 0.084v9.424a0.276 0.276 0 0 1-0.074 0.204 0.278 0.278 0 0 1-0.205 0.074h-1.225a0.275 0.275 0 0 1-0.203-0.074zm19.405-2.468c0.062-0.111 0.131-0.167 0.205-0.167a0.27 0.27 0 0 1 0.166 0.056l0.761 0.464c0.099 0.062 0.148 0.143 0.148 0.241l-0.037 0.148a3.631 3.631 0 0 1-1.419 1.429c-0.612 0.347-1.326 0.52-2.143 0.52-0.879 0-1.621-0.194-2.227-0.584s-1.064-0.949-1.373-1.68c-0.309-0.754-0.463-1.639-0.463-2.652 0-0.903 0.067-1.589 0.203-2.06 0.223-0.854 0.668-1.527 1.336-2.022 0.668-0.494 1.479-0.741 2.43-0.741 1.176 0 2.072 0.306 2.691 0.918 0.617 0.612 1.02 1.5 1.205 2.662a17.8 17.8 0 0 1 0.13 1.67c0 0.186-0.093 0.278-0.278 0.278h-5.862c-0.062 0-0.093 0.03-0.093 0.093 0.025 0.47 0.068 0.804 0.13 1.001 0.136 0.495 0.408 0.885 0.816 1.169 0.408 0.285 0.915 0.427 1.521 0.427 1.002-0.013 1.72-0.403 2.153-1.17zm-3.739-5.12c-0.34 0.26-0.572 0.619-0.695 1.076a4.325 4.325 0 0 0-0.167 1.039c0 0.062 0.03 0.093 0.093 0.093h4.211c0.062 0 0.094-0.031 0.094-0.093-0.025-0.408-0.062-0.711-0.111-0.909a2.114 2.114 0 0 0-0.733-1.159c-0.364-0.291-0.819-0.437-1.364-0.437s-0.988 0.13-1.328 0.39zm14.684-1.03c0.594 0.588 0.891 1.382 0.891 2.384v6.029a0.272 0.272 0 0 1-0.074 0.204 0.271 0.271 0 0 1-0.203 0.074h-1.225a0.274 0.274 0 0 1-0.204-0.074 0.272 0.272 0 0 1-0.074-0.204v-5.676c0-0.618-0.18-1.119-0.538-1.503-0.359-0.383-0.835-0.575-1.429-0.575-0.532 0-0.979 0.158-1.345 0.474s-0.578 0.739-0.641 1.271v6.011a0.272 0.272 0 0 1-0.074 0.204 0.271 0.271 0 0 1-0.203 0.074h-1.225a0.272 0.272 0 0 1-0.204-0.074 0.272 0.272 0 0 1-0.074-0.204v-8.888c0-0.086 0.024-0.154 0.074-0.203a0.272 0.272 0 0 1 0.204-0.074h1.225c0.086 0 0.154 0.024 0.203 0.074 0.05 0.049 0.074 0.117 0.074 0.203v0.52c0 0.037 0.013 0.062 0.037 0.074 0.025 0.013 0.043 7e-3 0.057-0.019 0.52-0.655 1.299-0.982 2.337-0.982 1.014 0 1.818 0.293 2.411 0.88zm8.478 0.64a0.272 0.272 0 0 1-0.204 0.074h-1.892c-0.062 0-0.094 0.031-0.094 0.093v4.842c0 0.532 0.115 0.909 0.344 1.132s0.596 0.334 1.104 0.334h0.445a0.28 0.28 0 0 1 0.204 0.074c0.05 0.05 0.074 0.118 0.074 0.204v0.965c0 0.174-0.093 0.272-0.278 0.297l-0.761 0.019c-0.952 0-1.663-0.167-2.134-0.501-0.47-0.334-0.705-0.958-0.705-1.874v-5.492c0-0.062-0.03-0.093-0.092-0.093h-1.021a0.272 0.272 0 0 1-0.204-0.074 0.272 0.272 0 0 1-0.074-0.204v-0.909c0-0.086 0.024-0.154 0.074-0.203a0.272 0.272 0 0 1 0.204-0.074h1.021c0.062 0 0.092-0.031 0.092-0.093v-2.078c0-0.087 0.025-0.154 0.074-0.204a0.276 0.276 0 0 1 0.205-0.074h1.15c0.086 0 0.154 0.024 0.203 0.074 0.05 0.05 0.074 0.117 0.074 0.204v2.078c0 0.062 0.031 0.093 0.094 0.093h1.892c0.087 0 0.155 0.024 0.204 0.074a0.275 0.275 0 0 1 0.074 0.203v0.909a0.268 0.268 0 0 1-0.073 0.204zm3.979 7.505c-0.674-0.464-1.146-1.11-1.418-1.939-0.223-0.667-0.334-1.422-0.334-2.263 0-0.878 0.104-1.62 0.314-2.227 0.271-0.816 0.748-1.456 1.429-1.92s1.49-0.695 2.431-0.695c0.891 0 1.666 0.231 2.328 0.695 0.661 0.464 1.135 1.098 1.419 1.901 0.223 0.631 0.334 1.373 0.334 2.227 0 0.865-0.111 1.626-0.334 2.281-0.272 0.829-0.742 1.476-1.409 1.939-0.668 0.464-1.454 0.695-2.357 0.695-0.928 1e-3 -1.729-0.23-2.403-0.694zm3.701-1.262c0.371-0.278 0.637-0.671 0.799-1.179 0.135-0.47 0.203-1.051 0.203-1.743s-0.062-1.268-0.186-1.726c-0.16-0.507-0.426-0.899-0.797-1.178s-0.823-0.418-1.355-0.418c-0.507 0-0.945 0.14-1.316 0.418s-0.637 0.671-0.798 1.178c-0.136 0.433-0.204 1.008-0.204 1.726 0 0.717 0.068 1.299 0.204 1.743 0.148 0.508 0.411 0.9 0.788 1.179s0.832 0.417 1.363 0.417a2.1 2.1 0 0 0 1.299-0.417zm10.724-7.523c0.136 0.074 0.186 0.192 0.148 0.353l-0.26 1.206c-0.013 0.124-0.074 0.186-0.186 0.186a0.458 0.458 0 0 1-0.148-0.019 1.989 1.989 0 0 0-0.631-0.093c-0.124 0-0.216 7e-3 -0.278 0.019-0.582 0.025-1.061 0.226-1.438 0.604-0.377 0.377-0.566 0.869-0.566 1.475v5.324a0.272 0.272 0 0 1-0.074 0.204 0.271 0.271 0 0 1-0.203 0.074h-1.225a0.272 0.272 0 0 1-0.204-0.074 0.272 0.272 0 0 1-0.074-0.204v-8.888c0-0.086 0.024-0.154 0.074-0.203a0.272 0.272 0 0 1 0.204-0.074h1.225c0.086 0 0.154 0.024 0.203 0.074 0.05 0.049 0.074 0.117 0.074 0.203v0.854c0 0.05 0.01 0.078 0.028 0.084s0.04-0.01 0.065-0.047c0.557-0.841 1.311-1.261 2.263-1.261 0.372 0 0.706 0.067 1.003 0.203z" />
        <path d="m24.762 12.167a0.756 0.756 0 0 1-0.307-0.065l-6.438-2.883a0.751 0.751 0 0 1 0-1.37l6.438-2.873a0.752 0.752 0 0 1 0.991 0.379 0.752 0.752 0 0 1-0.38 0.991l-4.905 2.189 4.906 2.197a0.75 0.75 0 0 1-0.305 1.435z" fill="#67bece"/>
        <path d="m15.988 22.626c-7.078 0-13.266-4.778-15.045-11.62a0.749714 0.749714 0 1 1 1.451-0.378 14.044 14.044 0 0 0 13.594 10.498 0.75 0.75 0 0 1 0 1.5z" fill="#3f54a3"/>
        <path d="m13.404 16.398a0.75 0.75 0 0 1-0.75-0.75v-14.257a0.75 0.75 0 0 1 1.5 0v14.257a0.75 0.75 0 0 1-0.75 0.75z" fill="#67bece"/>

        <path d="M 37.789062 19.501953 A 0.749 0.749 0 0 0 37.376953 19.712891 L 33.572266 23.515625 A 0.75061074 0.75061074 0 0 0 34.634766 24.576172 L 37.90625 21.304688 L 41.179688 24.576172 L 41.179688 24.578125 A 0.744 0.744 0 0 0 41.357422 24.707031 A 0.75024029 0.75024029 0 0 0 41.404297 24.726562 A 0.744 0.744 0 0 0 41.576172 24.78125 A 0.75024029 0.75024029 0 0 0 41.621094 24.787109 A 0.744 0.744 0 0 0 41.710938 24.798828 A 0.75 0.75 0 0 0 41.820312 24.787109 A 0.75 0.75 0 0 0 41.832031 24.785156 A 0.75 0.75 0 0 0 42.044922 24.716797 A 0.75 0.75 0 0 0 42.050781 24.714844 A 0.75024029 0.75024029 0 0 0 42.058594 24.708984 A 0.75 0.75 0 0 0 42.259766 24.556641 L 45.513672 21.304688 L 48.785156 24.578125 A 0.746 0.746 0 0 0 48.96875 24.708984 A 0.75024029 0.75024029 0 0 0 49.003906 24.722656 A 0.746 0.746 0 0 0 49.181641 24.78125 A 0.75024029 0.75024029 0 0 0 49.226562 24.787109 A 0.746 0.746 0 0 0 49.316406 24.798828 A 0.75 0.75 0 0 0 49.648438 24.71875 A 0.75024029 0.75024029 0 0 0 49.667969 24.707031 A 0.75 0.75 0 0 0 49.865234 24.558594 L 53.121094 21.304688 L 56.392578 24.578125 A 0.746 0.746 0 0 0 56.570312 24.707031 A 0.75024029 0.75024029 0 0 0 56.619141 24.726562 A 0.746 0.746 0 0 0 56.787109 24.78125 A 0.75024029 0.75024029 0 0 0 56.833984 24.787109 A 0.746 0.746 0 0 0 56.923828 24.798828 A 0.75 0.75 0 0 0 57.251953 24.71875 A 0.75024029 0.75024029 0 0 0 57.273438 24.707031 A 0.75 0.75 0 0 0 57.474609 24.554688 L 60.726562 21.304688 L 64 24.578125 A 0.744 0.744 0 0 0 64.185547 24.710938 A 0.75024029 0.75024029 0 0 0 64.212891 24.722656 A 0.744 0.744 0 0 0 64.396484 24.78125 A 0.75024029 0.75024029 0 0 0 64.439453 24.787109 A 0.744 0.744 0 0 0 64.529297 24.798828 A 0.75 0.75 0 0 0 64.861328 24.71875 A 0.75024029 0.75024029 0 0 0 64.882812 24.707031 A 0.75 0.75 0 0 0 65.0625 24.576172 L 68.332031 21.304688 L 71.607422 24.578125 A 0.746 0.746 0 0 0 71.787109 24.708984 A 0.75024029 0.75024029 0 0 0 71.826172 24.724609 A 0.746 0.746 0 0 0 72 24.78125 A 0.75024029 0.75024029 0 0 0 72.046875 24.787109 A 0.746 0.746 0 0 0 72.136719 24.798828 A 0.75 0.75 0 0 0 72.46875 24.71875 A 0.75024029 0.75024029 0 0 0 72.488281 24.707031 A 0.75 0.75 0 0 0 72.685547 24.558594 L 75.939453 21.304688 L 79.212891 24.578125 A 0.744 0.744 0 0 0 79.398438 24.710938 A 0.75024029 0.75024029 0 0 0 79.425781 24.722656 A 0.744 0.744 0 0 0 79.609375 24.78125 A 0.75024029 0.75024029 0 0 0 79.652344 24.787109 A 0.744 0.744 0 0 0 79.742188 24.798828 A 0.75 0.75 0 0 0 80.074219 24.71875 A 0.75024029 0.75024029 0 0 0 80.099609 24.705078 A 0.75 0.75 0 0 0 80.292969 24.558594 L 83.546875 21.304688 L 86.820312 24.578125 A 0.746 0.746 0 0 0 87 24.708984 A 0.75024029 0.75024029 0 0 0 87.039062 24.724609 A 0.746 0.746 0 0 0 87.212891 24.78125 A 0.75024029 0.75024029 0 0 0 87.259766 24.787109 A 0.746 0.746 0 0 0 87.349609 24.798828 A 0.75 0.75 0 0 0 87.691406 24.714844 A 0.75024029 0.75024029 0 0 0 87.699219 24.708984 A 0.75 0.75 0 0 0 87.898438 24.558594 L 91.154297 21.304688 L 94.425781 24.578125 A 0.746 0.746 0 0 0 94.603516 24.707031 A 0.75024029 0.75024029 0 0 0 94.650391 24.726562 A 0.746 0.746 0 0 0 94.822266 24.78125 A 0.75024029 0.75024029 0 0 0 94.867188 24.787109 A 0.746 0.746 0 0 0 94.957031 24.798828 A 0.75 0.75 0 0 0 95.285156 24.71875 A 0.75024029 0.75024029 0 0 0 95.310547 24.705078 A 0.75 0.75 0 0 0 95.505859 24.556641 L 98.759766 21.304688 L 102.0332 24.578125 A 0.744 0.744 0 0 0 102.21875 24.710938 A 0.75024029 0.75024029 0 0 0 102.24609 24.722656 A 0.744 0.744 0 0 0 102.42969 24.78125 A 0.75024029 0.75024029 0 0 0 102.47266 24.787109 A 0.744 0.744 0 0 0 102.5625 24.798828 A 0.75 0.75 0 0 0 102.89453 24.71875 A 0.75024029 0.75024029 0 0 0 102.91602 24.707031 A 0.75 0.75 0 0 0 103.10156 24.570312 L 106.36719 21.304688 L 109.64062 24.578125 A 0.746 0.746 0 0 0 110.16992 24.798828 A 0.75 0.75 0 0 0 110.70117 23.517578 L 106.89648 19.712891 A 0.75 0.75 0 0 0 105.83789 19.712891 L 102.5625 22.986328 L 99.289062 19.712891 A 0.749 0.749 0 0 0 98.230469 19.712891 L 94.955078 22.986328 L 91.683594 19.712891 A 0.75 0.75 0 0 0 90.623047 19.712891 L 87.351562 22.984375 L 84.078125 19.712891 A 0.773 0.773 0 0 0 83.017578 19.712891 L 79.744141 22.986328 L 76.470703 19.712891 A 0.773 0.773 0 0 0 75.410156 19.712891 L 72.136719 22.984375 L 68.865234 19.712891 A 0.773 0.773 0 0 0 67.804688 19.712891 L 64.53125 22.986328 L 61.257812 19.712891 A 0.773 0.773 0 0 0 60.195312 19.712891 L 56.921875 22.986328 L 53.650391 19.712891 A 0.75 0.75 0 0 0 52.591797 19.712891 L 49.316406 22.986328 L 46.044922 19.712891 A 0.773 0.773 0 0 0 44.982422 19.712891 L 41.708984 22.986328 L 38.4375 19.712891 A 0.749 0.749 0 0 0 37.789062 19.501953 z" fill="#f9c7c5"/>
    </symbol>
</svg>